<svg xmlns="http://www.w3.org/2000/svg" viewBox="0 0 96 96" role="img" aria-labelledby="title">
  <title id="title">OG Future Holdings mark</title>
  <rect width="96" height="96" rx="10" fill="#251517"/>
  <path d="M49 15c-19 0-34 15-34 33s15 33 34 33c10 0 19-4 25-11l-10-8c-4 4-9 7-15 7-12 0-21-9-21-21s9-21 21-21c7 0 13 3 17 9H48v12h33c0-2 .1-3 .1-5C81 27 67 15 49 15Z" fill="#f6f1e8"/>
  <path d="M49 34c-8 0-14 6-14 14s6 14 14 14c5 0 9-2 12-6h-12V45h25c.2 1 .3 2 .3 4 0 15-11 26-26 26-15 0-27-12-27-27s12-27 27-27c10 0 19 5 23 13l-11 5c-2-3-6-5-11-5Z" fill="#9b7448"/>
</svg>
